<svg xmlns="http://www.w3.org/2000/svg" width="1400" height="360" viewBox="0 0 1400 360" role="img"><rect width="1400" height="360" fill="#0a0a0b"/><path d="M120 150 H1280" stroke="#eef0f4" stroke-width="3.0" opacity="0.84" fill="none" stroke-linecap="round"/><path d="M120 174 H1280" stroke="#3396ff" stroke-width="3.4" fill="none" stroke-linecap="round"/><g stroke="#eef0f4" stroke-width="2.0" opacity="0.64" fill="none" stroke-linecap="round"><path d="M201.2 174 V234"/><path d="M537.6 174 V234"/><path d="M862.4 174 V234"/><path d="M1198.8 174 V234"/></g><g fill="#eef0f4" opacity="0.84"><circle cx="120" cy="150" r="3.4"/><circle cx="1280" cy="150" r="3.4"/></g><g fill="#3396ff"><circle cx="120.0" cy="174" r="4"/><circle cx="1280.0" cy="174" r="4"/><circle cx="201.2" cy="174" r="4"/><circle cx="537.6" cy="174" r="4"/><circle cx="862.4" cy="174" r="4"/><circle cx="1198.8" cy="174" r="4"/></g><g fill="#eef0f4">
<path d="M66 1202V1490H1320V1202H869V0H517V1202Z" transform="translate(501.867 136.000) scale(0.073242 -0.073242)"/>
<path d="M115 0V1118H454V914H466Q496 1025 565.5 1078.5Q635 1132 727 1132Q751 1132 777.5 1129.0Q804 1126 826 1120V816Q801 825 760.5 829.5Q720 834 688 834Q624 834 573.0 805.5Q522 777 493.0 727.0Q464 677 464 610V0Z" transform="translate(588.134 136.000) scale(0.073242 -0.073242)"/>
<path d="M503 -14Q386 -14 298.5 38.0Q211 90 163.0 185.0Q115 280 115 406V1118H464V474Q464 380 512.5 326.5Q561 273 646 273Q704 273 746.5 297.5Q789 322 813.0 368.5Q837 415 837 480V1118H1186V0H858L852 282H867Q825 148 737.0 67.0Q649 -14 503 -14Z" transform="translate(644.373 136.000) scale(0.073242 -0.073242)"/>
<path d="M586 -21Q443 -21 333.0 19.5Q223 60 154.0 136.5Q85 213 65 320L389 371Q410 298 460.0 261.0Q510 224 599 224Q672 224 714.0 249.5Q756 275 756 317Q756 356 722.5 379.5Q689 403 619 417L424 455Q258 487 175.5 567.5Q93 648 93 777Q93 889 153.5 968.0Q214 1047 324.5 1089.5Q435 1132 585 1132Q725 1132 828.5 1094.5Q932 1057 995.5 987.5Q1059 918 1078 822L770 773Q755 829 708.5 860.5Q662 892 591 892Q528 892 484.5 866.5Q441 841 441 798Q441 764 468.0 738.5Q495 713 567 699L781 659Q947 627 1028.5 553.0Q1110 479 1110 357Q1110 242 1042.5 157.0Q975 72 857.0 25.5Q739 -21 586 -21Z" transform="translate(732.911 136.000) scale(0.073242 -0.073242)"/>
<path d="M586 -21Q443 -21 333.0 19.5Q223 60 154.0 136.5Q85 213 65 320L389 371Q410 298 460.0 261.0Q510 224 599 224Q672 224 714.0 249.5Q756 275 756 317Q756 356 722.5 379.5Q689 403 619 417L424 455Q258 487 175.5 567.5Q93 648 93 777Q93 889 153.5 968.0Q214 1047 324.5 1089.5Q435 1132 585 1132Q725 1132 828.5 1094.5Q932 1057 995.5 987.5Q1059 918 1078 822L770 773Q755 829 708.5 860.5Q662 892 591 892Q528 892 484.5 866.5Q441 841 441 798Q441 764 468.0 738.5Q495 713 567 699L781 659Q947 627 1028.5 553.0Q1110 479 1110 357Q1110 242 1042.5 157.0Q975 72 857.0 25.5Q739 -21 586 -21Z" transform="translate(812.147 136.000) scale(0.073242 -0.073242)"/>
</g><g fill="#eef0f4">
<path d="M228 0 43 730H154L271 244Q282 201 290.5 158.5Q299 116 303 92Q307 116 314.5 158.5Q322 201 333 245L449 730H557L371 0Z" transform="translate(134.480 262.000) scale(0.024000 -0.024000)"/>
<path d="M98 0V96H245V634H98V730H502V634H355V96H502V0Z" transform="translate(149.360 262.000) scale(0.024000 -0.024000)"/>
<path d="M303 -10Q229 -10 176.0 14.5Q123 39 94.0 84.5Q65 130 65 193H172Q172 143 207.0 114.5Q242 86 304 86Q362 86 395.0 114.0Q428 142 428 191Q428 232 405.5 262.0Q383 292 341 303L249 330Q169 353 125.5 408.5Q82 464 82 541Q82 601 109.0 646.0Q136 691 186.0 716.0Q236 741 304 741Q404 741 464.5 687.0Q525 633 526 542H418Q418 590 387.5 617.5Q357 645 302 645Q249 645 219.0 619.5Q189 594 189 548Q189 507 211.5 477.0Q234 447 276 435L369 407Q449 385 492.0 329.0Q535 273 535 195Q535 134 506.0 87.5Q477 41 425.0 15.5Q373 -10 303 -10Z" transform="translate(164.240 262.000) scale(0.024000 -0.024000)"/>
<path d="M98 0V96H245V634H98V730H502V634H355V96H502V0Z" transform="translate(179.120 262.000) scale(0.024000 -0.024000)"/>
<path d="M300 -10Q232 -10 182.5 15.5Q133 41 106.5 89.5Q80 138 80 203V527Q80 593 106.5 641.0Q133 689 182.5 714.5Q232 740 300 740Q368 740 417.5 714.5Q467 689 493.5 641.0Q520 593 520 528V203Q520 138 493.5 89.5Q467 41 417.5 15.5Q368 -10 300 -10ZM300 86Q355 86 383.5 116.5Q412 147 412 203V527Q412 584 383.5 614.0Q355 644 300 644Q246 644 217.0 614.0Q188 584 188 527V203Q188 147 217.0 116.5Q246 86 300 86Z" transform="translate(194.000 262.000) scale(0.024000 -0.024000)"/>
<path d="M81 0V730H217L430 123Q428 152 425.0 192.0Q422 232 420.5 275.0Q419 318 419 353V730H519V0H383L171 607Q173 581 175.5 542.0Q178 503 179.5 461.0Q181 419 181 383V0Z" transform="translate(208.880 262.000) scale(0.024000 -0.024000)"/>
<path d="M300 -10Q260 -10 236.0 13.5Q212 37 212 77Q212 118 236.0 142.5Q260 167 300 167Q341 167 364.5 142.5Q388 118 388 77Q388 37 364.5 13.5Q341 -10 300 -10Z" transform="translate(223.760 262.000) scale(0.024000 -0.024000)"/>
<path d="M59 0V550H149V480H169L154 459Q154 505 179.0 532.5Q204 560 246 560Q291 560 315.5 525.0Q340 490 340 429L316 480H354L338 459Q338 505 363.5 532.5Q389 560 432 560Q483 560 512.0 521.5Q541 483 541 419V0H445V416Q445 447 431.5 464.0Q418 481 393 481Q368 481 354.5 464.5Q341 448 341 417V0H260V416Q260 448 246.0 464.5Q232 481 206 481Q181 481 168.5 464.5Q156 448 156 417V0Z" transform="translate(238.640 262.000) scale(0.024000 -0.024000)"/>
<path d="M261 -10Q178 -10 128.0 46.0Q78 102 78 197V352Q78 448 128.0 504.0Q178 560 261 560Q329 560 369.0 522.5Q409 485 409 420L386 445H411L408 573V730H516V0H409V105H386L409 130Q409 65 369.0 27.5Q329 -10 261 -10ZM298 84Q349 84 378.5 115.5Q408 147 408 203V347Q408 403 378.5 434.5Q349 466 298 466Q245 466 215.0 435.5Q185 405 185 347V203Q185 145 215.0 114.5Q245 84 298 84Z" transform="translate(253.520 262.000) scale(0.024000 -0.024000)"/>
</g><g fill="#eef0f4">
<path d="M304 -10Q236 -10 184.5 15.5Q133 41 105.5 89.5Q78 138 78 203V347Q78 413 105.5 461.0Q133 509 184.5 534.5Q236 560 304 560Q403 560 463.0 508.0Q523 456 526 366H418Q415 413 385.0 439.0Q355 465 304 465Q249 465 217.0 434.5Q185 404 185 348V203Q185 147 217.0 116.0Q249 85 304 85Q355 85 385.0 111.0Q415 137 418 184H526Q523 94 463.0 42.0Q403 -10 304 -10Z" transform="translate(463.440 262.000) scale(0.024000 -0.024000)"/>
<path d="M299 -10Q200 -10 141.0 47.5Q82 105 82 204V550H190V204Q190 147 219.0 115.5Q248 84 299 84Q351 84 380.5 115.5Q410 147 410 204V550H518V204Q518 105 458.5 47.5Q399 -10 299 -10Z" transform="translate(478.320 262.000) scale(0.024000 -0.024000)"/>
<path d="M102 0V550H206V445H232L199 380Q199 469 238.0 514.5Q277 560 354 560Q442 560 493.5 505.5Q545 451 545 356V319H434V347Q434 406 404.5 437.5Q375 469 322 469Q269 469 239.5 437.0Q210 405 210 347V0Z" transform="translate(493.200 262.000) scale(0.024000 -0.024000)"/>
<path d="M102 0V550H206V445H232L199 380Q199 469 238.0 514.5Q277 560 354 560Q442 560 493.5 505.5Q545 451 545 356V319H434V347Q434 406 404.5 437.5Q375 469 322 469Q269 469 239.5 437.0Q210 405 210 347V0Z" transform="translate(508.080 262.000) scale(0.024000 -0.024000)"/>
<path d="M300 -10Q233 -10 182.5 16.5Q132 43 105.0 91.0Q78 139 78 203V347Q78 412 105.0 459.5Q132 507 182.5 533.5Q233 560 300 560Q368 560 418.0 533.5Q468 507 495.0 459.5Q522 412 522 347V249H182V203Q182 142 212.5 110.0Q243 78 301 78Q348 78 377.0 94.5Q406 111 413 143H520Q508 73 448.0 31.5Q388 -10 300 -10ZM418 314V348Q418 408 388.0 441.0Q358 474 300 474Q243 474 212.5 441.0Q182 408 182 347V322L426 323Z" transform="translate(522.960 262.000) scale(0.024000 -0.024000)"/>
<path d="M84 0V550H191V445H217L191 420Q191 486 230.0 523.0Q269 560 338 560Q420 560 469.0 507.5Q518 455 518 366V0H410V354Q410 408 381.0 437.0Q352 466 302 466Q251 466 221.5 435.5Q192 405 192 347V0Z" transform="translate(537.840 262.000) scale(0.024000 -0.024000)"/>
<path d="M360 0Q285 0 243.0 41.0Q201 82 201 155V452H49V550H201V705H309V550H524V452H309V155Q309 98 364 98H514V0Z" transform="translate(552.720 262.000) scale(0.024000 -0.024000)"/>
<path d="M300 -10Q260 -10 236.0 13.5Q212 37 212 77Q212 118 236.0 142.5Q260 167 300 167Q341 167 364.5 142.5Q388 118 388 77Q388 37 364.5 13.5Q341 -10 300 -10Z" transform="translate(567.600 262.000) scale(0.024000 -0.024000)"/>
<path d="M59 0V550H149V480H169L154 459Q154 505 179.0 532.5Q204 560 246 560Q291 560 315.5 525.0Q340 490 340 429L316 480H354L338 459Q338 505 363.5 532.5Q389 560 432 560Q483 560 512.0 521.5Q541 483 541 419V0H445V416Q445 447 431.5 464.0Q418 481 393 481Q368 481 354.5 464.5Q341 448 341 417V0H260V416Q260 448 246.0 464.5Q232 481 206 481Q181 481 168.5 464.5Q156 448 156 417V0Z" transform="translate(582.480 262.000) scale(0.024000 -0.024000)"/>
<path d="M261 -10Q178 -10 128.0 46.0Q78 102 78 197V352Q78 448 128.0 504.0Q178 560 261 560Q329 560 369.0 522.5Q409 485 409 420L386 445H411L408 573V730H516V0H409V105H386L409 130Q409 65 369.0 27.5Q329 -10 261 -10ZM298 84Q349 84 378.5 115.5Q408 147 408 203V347Q408 403 378.5 434.5Q349 466 298 466Q245 466 215.0 435.5Q185 405 185 347V203Q185 145 215.0 114.5Q245 84 298 84Z" transform="translate(597.360 262.000) scale(0.024000 -0.024000)"/>
</g><g fill="#eef0f4">
<path d="M261 -10Q178 -10 128.0 46.0Q78 102 78 197V352Q78 448 128.0 504.0Q178 560 261 560Q329 560 369.0 522.5Q409 485 409 420L386 445H411L408 573V730H516V0H409V105H386L409 130Q409 65 369.0 27.5Q329 -10 261 -10ZM298 84Q349 84 378.5 115.5Q408 147 408 203V347Q408 403 378.5 434.5Q349 466 298 466Q245 466 215.0 435.5Q185 405 185 347V203Q185 145 215.0 114.5Q245 84 298 84Z" transform="translate(773.360 262.000) scale(0.024000 -0.024000)"/>
<path d="M300 -10Q233 -10 182.5 16.5Q132 43 105.0 91.0Q78 139 78 203V347Q78 412 105.0 459.5Q132 507 182.5 533.5Q233 560 300 560Q368 560 418.0 533.5Q468 507 495.0 459.5Q522 412 522 347V249H182V203Q182 142 212.5 110.0Q243 78 301 78Q348 78 377.0 94.5Q406 111 413 143H520Q508 73 448.0 31.5Q388 -10 300 -10ZM418 314V348Q418 408 388.0 441.0Q358 474 300 474Q243 474 212.5 441.0Q182 408 182 347V322L426 323Z" transform="translate(788.240 262.000) scale(0.024000 -0.024000)"/>
<path d="M304 -10Q236 -10 184.5 15.5Q133 41 105.5 89.5Q78 138 78 203V347Q78 413 105.5 461.0Q133 509 184.5 534.5Q236 560 304 560Q403 560 463.0 508.0Q523 456 526 366H418Q415 413 385.0 439.0Q355 465 304 465Q249 465 217.0 434.5Q185 404 185 348V203Q185 147 217.0 116.0Q249 85 304 85Q355 85 385.0 111.0Q415 137 418 184H526Q523 94 463.0 42.0Q403 -10 304 -10Z" transform="translate(803.120 262.000) scale(0.024000 -0.024000)"/>
<path d="M81 0V98H274V452H106V550H379V98H556V0ZM316 645Q281 645 260.0 663.5Q239 682 239 713Q239 745 260.0 763.5Q281 782 316 782Q351 782 372.0 763.5Q393 745 393 713Q393 682 372.0 663.5Q351 645 316 645Z" transform="translate(818.000 262.000) scale(0.024000 -0.024000)"/>
<path d="M281 -9Q222 -9 177.5 10.0Q133 29 107.5 62.5Q82 96 78 142H186Q190 115 215.0 98.5Q240 82 281 82H324Q373 82 398.0 102.0Q423 122 423 155Q423 187 400.5 205.5Q378 224 334 230L263 241Q175 255 133.5 291.5Q92 328 92 400Q92 476 141.5 517.5Q191 559 288 559H326Q412 559 463.5 519.5Q515 480 522 414H414Q410 438 387.5 453.0Q365 468 326 468H288Q241 468 219.5 450.5Q198 433 198 399Q198 369 217.0 354.0Q236 339 276 333L349 321Q442 308 485.5 269.5Q529 231 529 158Q529 79 477.5 35.0Q426 -9 324 -9Z" transform="translate(832.880 262.000) scale(0.024000 -0.024000)"/>
<path d="M81 0V98H274V452H106V550H379V98H556V0ZM316 645Q281 645 260.0 663.5Q239 682 239 713Q239 745 260.0 763.5Q281 782 316 782Q351 782 372.0 763.5Q393 745 393 713Q393 682 372.0 663.5Q351 645 316 645Z" transform="translate(847.760 262.000) scale(0.024000 -0.024000)"/>
<path d="M300 -9Q232 -9 182.0 17.0Q132 43 105.0 91.0Q78 139 78 204V346Q78 412 105.0 459.5Q132 507 182.0 533.0Q232 559 300 559Q368 559 418.0 533.0Q468 507 495.0 459.5Q522 412 522 346V204Q522 139 495.0 91.0Q468 43 418.0 17.0Q368 -9 300 -9ZM300 86Q355 86 385.0 116.5Q415 147 415 204V346Q415 404 385.0 434.0Q355 464 300 464Q246 464 215.5 434.0Q185 404 185 346V204Q185 147 215.5 116.5Q246 86 300 86Z" transform="translate(862.640 262.000) scale(0.024000 -0.024000)"/>
<path d="M84 0V550H191V445H217L191 420Q191 486 230.0 523.0Q269 560 338 560Q420 560 469.0 507.5Q518 455 518 366V0H410V354Q410 408 381.0 437.0Q352 466 302 466Q251 466 221.5 435.5Q192 405 192 347V0Z" transform="translate(877.520 262.000) scale(0.024000 -0.024000)"/>
<path d="M281 -9Q222 -9 177.5 10.0Q133 29 107.5 62.5Q82 96 78 142H186Q190 115 215.0 98.5Q240 82 281 82H324Q373 82 398.0 102.0Q423 122 423 155Q423 187 400.5 205.5Q378 224 334 230L263 241Q175 255 133.5 291.5Q92 328 92 400Q92 476 141.5 517.5Q191 559 288 559H326Q412 559 463.5 519.5Q515 480 522 414H414Q410 438 387.5 453.0Q365 468 326 468H288Q241 468 219.5 450.5Q198 433 198 399Q198 369 217.0 354.0Q236 339 276 333L349 321Q442 308 485.5 269.5Q529 231 529 158Q529 79 477.5 35.0Q426 -9 324 -9Z" transform="translate(892.400 262.000) scale(0.024000 -0.024000)"/>
<path d="M300 -10Q260 -10 236.0 13.5Q212 37 212 77Q212 118 236.0 142.5Q260 167 300 167Q341 167 364.5 142.5Q388 118 388 77Q388 37 364.5 13.5Q341 -10 300 -10Z" transform="translate(907.280 262.000) scale(0.024000 -0.024000)"/>
<path d="M59 0V550H149V480H169L154 459Q154 505 179.0 532.5Q204 560 246 560Q291 560 315.5 525.0Q340 490 340 429L316 480H354L338 459Q338 505 363.5 532.5Q389 560 432 560Q483 560 512.0 521.5Q541 483 541 419V0H445V416Q445 447 431.5 464.0Q418 481 393 481Q368 481 354.5 464.5Q341 448 341 417V0H260V416Q260 448 246.0 464.5Q232 481 206 481Q181 481 168.5 464.5Q156 448 156 417V0Z" transform="translate(922.160 262.000) scale(0.024000 -0.024000)"/>
<path d="M261 -10Q178 -10 128.0 46.0Q78 102 78 197V352Q78 448 128.0 504.0Q178 560 261 560Q329 560 369.0 522.5Q409 485 409 420L386 445H411L408 573V730H516V0H409V105H386L409 130Q409 65 369.0 27.5Q329 -10 261 -10ZM298 84Q349 84 378.5 115.5Q408 147 408 203V347Q408 403 378.5 434.5Q349 466 298 466Q245 466 215.0 435.5Q185 405 185 347V203Q185 145 215.0 114.5Q245 84 298 84Z" transform="translate(937.040 262.000) scale(0.024000 -0.024000)"/>
</g><g fill="#eef0f4">
<path d="M84 -180V550H191V445H214L191 420Q191 485 231.5 522.5Q272 560 340 560Q423 560 472.5 504.5Q522 449 522 353V198Q522 134 499.5 87.5Q477 41 436.5 15.5Q396 -10 340 -10Q273 -10 232.0 27.5Q191 65 191 130L214 105H189L192 -23V-180ZM303 84Q356 84 385.5 114.5Q415 145 415 203V347Q415 405 385.5 435.5Q356 466 303 466Q252 466 222.0 434.5Q192 403 192 347V203Q192 147 222.0 115.5Q252 84 303 84Z" transform="translate(1132.080 262.000) scale(0.024000 -0.024000)"/>
<path d="M84 0V730H192V550L191 445H217L191 420Q191 486 230.0 523.0Q269 560 338 560Q420 560 469.0 507.5Q518 455 518 366V0H410V354Q410 408 381.0 438.0Q352 468 302 468Q251 468 221.5 436.5Q192 405 192 347V0Z" transform="translate(1146.960 262.000) scale(0.024000 -0.024000)"/>
<path d="M245 -10Q159 -10 109.5 34.5Q60 79 60 156Q60 234 112.5 278.5Q165 323 257 323H410V374Q410 419 382.0 444.0Q354 469 303 469Q258 469 228.0 449.5Q198 430 193 398H87Q96 472 155.5 516.0Q215 560 306 560Q404 560 461.0 510.5Q518 461 518 376V0H413V101H395L413 121Q413 61 367.0 25.5Q321 -10 245 -10ZM277 73Q335 73 372.5 102.5Q410 132 410 178V250H259Q217 250 192.5 227.0Q168 204 168 164Q168 122 197.0 97.5Q226 73 277 73Z" transform="translate(1161.840 262.000) scale(0.024000 -0.024000)"/>
<path d="M281 -9Q222 -9 177.5 10.0Q133 29 107.5 62.5Q82 96 78 142H186Q190 115 215.0 98.5Q240 82 281 82H324Q373 82 398.0 102.0Q423 122 423 155Q423 187 400.5 205.5Q378 224 334 230L263 241Q175 255 133.5 291.5Q92 328 92 400Q92 476 141.5 517.5Q191 559 288 559H326Q412 559 463.5 519.5Q515 480 522 414H414Q410 438 387.5 453.0Q365 468 326 468H288Q241 468 219.5 450.5Q198 433 198 399Q198 369 217.0 354.0Q236 339 276 333L349 321Q442 308 485.5 269.5Q529 231 529 158Q529 79 477.5 35.0Q426 -9 324 -9Z" transform="translate(1176.720 262.000) scale(0.024000 -0.024000)"/>
<path d="M300 -10Q233 -10 182.5 16.5Q132 43 105.0 91.0Q78 139 78 203V347Q78 412 105.0 459.5Q132 507 182.5 533.5Q233 560 300 560Q368 560 418.0 533.5Q468 507 495.0 459.5Q522 412 522 347V249H182V203Q182 142 212.5 110.0Q243 78 301 78Q348 78 377.0 94.5Q406 111 413 143H520Q508 73 448.0 31.5Q388 -10 300 -10ZM418 314V348Q418 408 388.0 441.0Q358 474 300 474Q243 474 212.5 441.0Q182 408 182 347V322L426 323Z" transform="translate(1191.600 262.000) scale(0.024000 -0.024000)"/>
<path d="M281 -9Q222 -9 177.5 10.0Q133 29 107.5 62.5Q82 96 78 142H186Q190 115 215.0 98.5Q240 82 281 82H324Q373 82 398.0 102.0Q423 122 423 155Q423 187 400.5 205.5Q378 224 334 230L263 241Q175 255 133.5 291.5Q92 328 92 400Q92 476 141.5 517.5Q191 559 288 559H326Q412 559 463.5 519.5Q515 480 522 414H414Q410 438 387.5 453.0Q365 468 326 468H288Q241 468 219.5 450.5Q198 433 198 399Q198 369 217.0 354.0Q236 339 276 333L349 321Q442 308 485.5 269.5Q529 231 529 158Q529 79 477.5 35.0Q426 -9 324 -9Z" transform="translate(1206.480 262.000) scale(0.024000 -0.024000)"/>
<path d="M300 -10Q260 -10 236.0 13.5Q212 37 212 77Q212 118 236.0 142.5Q260 167 300 167Q341 167 364.5 142.5Q388 118 388 77Q388 37 364.5 13.5Q341 -10 300 -10Z" transform="translate(1221.360 262.000) scale(0.024000 -0.024000)"/>
<path d="M59 0V550H149V480H169L154 459Q154 505 179.0 532.5Q204 560 246 560Q291 560 315.5 525.0Q340 490 340 429L316 480H354L338 459Q338 505 363.5 532.5Q389 560 432 560Q483 560 512.0 521.5Q541 483 541 419V0H445V416Q445 447 431.5 464.0Q418 481 393 481Q368 481 354.5 464.5Q341 448 341 417V0H260V416Q260 448 246.0 464.5Q232 481 206 481Q181 481 168.5 464.5Q156 448 156 417V0Z" transform="translate(1236.240 262.000) scale(0.024000 -0.024000)"/>
<path d="M261 -10Q178 -10 128.0 46.0Q78 102 78 197V352Q78 448 128.0 504.0Q178 560 261 560Q329 560 369.0 522.5Q409 485 409 420L386 445H411L408 573V730H516V0H409V105H386L409 130Q409 65 369.0 27.5Q329 -10 261 -10ZM298 84Q349 84 378.5 115.5Q408 147 408 203V347Q408 403 378.5 434.5Q349 466 298 466Q245 466 215.0 435.5Q185 405 185 347V203Q185 145 215.0 114.5Q245 84 298 84Z" transform="translate(1251.120 262.000) scale(0.024000 -0.024000)"/>
</g><g fill="#7f8794">
<path d="M92 -180V550H182V445H200L182 424Q182 487 223.5 523.5Q265 560 333 560Q416 560 465.5 505.5Q515 451 515 356V195Q515 132 492.5 86.0Q470 40 429.5 15.0Q389 -10 333 -10Q266 -10 224.0 27.0Q182 64 182 126L200 105H180L182 -20V-180ZM303 68Q360 68 392.5 102.0Q425 136 425 200V350Q425 414 392.5 448.0Q360 482 303 482Q248 482 215.0 447.0Q182 412 182 350V200Q182 138 215.0 103.0Q248 68 303 68Z" transform="translate(298.000 316.000) scale(0.020000 -0.020000)"/>
<path d="M375 0Q327 0 291.0 19.0Q255 38 235.0 73.0Q215 108 215 155V648H30V730H305V155Q305 121 324.0 101.5Q343 82 375 82H550V0Z" transform="translate(312.400 316.000) scale(0.020000 -0.020000)"/>
<path d="M252 -10Q165 -10 115.0 34.5Q65 79 65 155Q65 232 115.0 276.0Q165 320 250 320H420V375Q420 426 389.5 453.5Q359 481 303 481Q254 481 221.0 460.5Q188 440 183 405H93Q102 476 160.0 518.0Q218 560 305 560Q400 560 455.0 511.0Q510 462 510 378V0H422V105H407L422 120Q422 60 375.5 25.0Q329 -10 252 -10ZM274 61Q338 61 379.0 93.0Q420 125 420 175V253H252Q207 253 181.0 228.0Q155 203 155 160Q155 114 186.5 87.5Q218 61 274 61Z" transform="translate(326.800 316.000) scale(0.020000 -0.020000)"/>
<path d="M85 0V82H280V468H110V550H370V82H555V0ZM315 649Q282 649 263.0 666.0Q244 683 244 712Q244 742 263.0 759.5Q282 777 315 777Q348 777 367.0 759.5Q386 742 386 712Q386 683 367.0 666.0Q348 649 315 649Z" transform="translate(341.200 316.000) scale(0.020000 -0.020000)"/>
<path d="M92 0V550H182V445H201L182 424Q182 489 221.0 524.5Q260 560 329 560Q412 560 461.0 509.0Q510 458 510 370V0H420V360Q420 419 388.5 450.5Q357 482 303 482Q247 482 214.5 448.0Q182 414 182 350V0Z" transform="translate(355.600 316.000) scale(0.020000 -0.020000)"/>
<path d="M76 0V730H194L270 494Q281 462 290.0 430.5Q299 399 303 382Q308 399 316.0 430.5Q324 462 334 495L406 730H524V0H436V265Q436 309 439.0 365.0Q442 421 447.0 479.5Q452 538 457.5 591.5Q463 645 467 685L349 320H254L135 685Q140 646 145.0 594.5Q150 543 154.0 485.5Q158 428 161.0 371.0Q164 314 164 265V0Z" transform="translate(384.400 316.000) scale(0.020000 -0.020000)"/>
<path d="M252 -10Q165 -10 115.0 34.5Q65 79 65 155Q65 232 115.0 276.0Q165 320 250 320H420V375Q420 426 389.5 453.5Q359 481 303 481Q254 481 221.0 460.5Q188 440 183 405H93Q102 476 160.0 518.0Q218 560 305 560Q400 560 455.0 511.0Q510 462 510 378V0H422V105H407L422 120Q422 60 375.5 25.0Q329 -10 252 -10ZM274 61Q338 61 379.0 93.0Q420 125 420 175V253H252Q207 253 181.0 228.0Q155 203 155 160Q155 114 186.5 87.5Q218 61 274 61Z" transform="translate(398.800 316.000) scale(0.020000 -0.020000)"/>
<path d="M111 0V550H199V445H220L191 380Q191 469 229.5 514.5Q268 560 344 560Q431 560 482.5 505.5Q534 451 534 358V325H444V350Q444 415 412.5 449.5Q381 484 323 484Q266 484 233.5 449.0Q201 414 201 350V0Z" transform="translate(413.200 316.000) scale(0.020000 -0.020000)"/>
<path d="M95 0V730H185V323H291L451 550H554L369 288L557 0H452L292 245H185V0Z" transform="translate(427.600 316.000) scale(0.020000 -0.020000)"/>
<path d="M268 -10Q186 -10 135.5 45.0Q85 100 85 194V355Q85 450 135.0 505.0Q185 560 268 560Q336 560 377.0 523.0Q418 486 418 424L400 445H420L418 570V730H508V0H418V105H400L418 126Q418 63 377.0 26.5Q336 -10 268 -10ZM298 68Q354 68 386.0 103.0Q418 138 418 200V350Q418 412 386.0 447.0Q354 482 298 482Q241 482 208.0 448.0Q175 414 175 350V200Q175 136 208.0 102.0Q241 68 298 68Z" transform="translate(442.000 316.000) scale(0.020000 -0.020000)"/>
<path d="M300 -8Q234 -8 186.0 17.0Q138 42 111.5 89.5Q85 137 85 202V348Q85 414 111.5 461.0Q138 508 186.0 533.0Q234 558 300 558Q366 558 414.0 533.0Q462 508 488.5 461.0Q515 414 515 349V202Q515 137 488.5 89.5Q462 42 414.0 17.0Q366 -8 300 -8ZM300 72Q359 72 392.0 105.0Q425 138 425 202V348Q425 412 392.0 445.0Q359 478 300 478Q242 478 208.5 445.0Q175 412 175 348V202Q175 138 208.5 105.0Q242 72 300 72Z" transform="translate(456.400 316.000) scale(0.020000 -0.020000)"/>
<path d="M123 0 35 550H115L170 160Q173 138 176.5 112.5Q180 87 182 70Q184 87 188.5 112.5Q193 138 196 160L257 550H343L404 160Q407 138 411.5 112.5Q416 87 418 70Q420 87 424.5 112.5Q429 138 432 160L489 550H565L473 0H374L315 380Q311 408 306.0 436.0Q301 464 299 480Q297 464 293.0 436.0Q289 408 284 380L222 0Z" transform="translate(470.800 316.000) scale(0.020000 -0.020000)"/>
<path d="M92 0V550H182V445H201L182 424Q182 489 221.0 524.5Q260 560 329 560Q412 560 461.0 509.0Q510 458 510 370V0H420V360Q420 419 388.5 450.5Q357 482 303 482Q247 482 214.5 448.0Q182 414 182 350V0Z" transform="translate(485.200 316.000) scale(0.020000 -0.020000)"/>
<path d="M300 260Q262 260 239.5 282.0Q217 304 217 341Q217 380 239.5 403.0Q262 426 300 426Q338 426 360.5 403.0Q383 380 383 341Q383 304 360.5 282.0Q338 260 300 260Z" transform="translate(528.400 316.000) scale(0.020000 -0.020000)"/>
<path d="M375 0Q327 0 291.0 19.0Q255 38 235.0 73.0Q215 108 215 155V648H30V730H305V155Q305 121 324.0 101.5Q343 82 375 82H550V0Z" transform="translate(571.600 316.000) scale(0.020000 -0.020000)"/>
<path d="M85 0V82H280V468H110V550H370V82H555V0ZM315 649Q282 649 263.0 666.0Q244 683 244 712Q244 742 263.0 759.5Q282 777 315 777Q348 777 367.0 759.5Q386 742 386 712Q386 683 367.0 666.0Q348 649 315 649Z" transform="translate(586.000 316.000) scale(0.020000 -0.020000)"/>
<path d="M161 -180V-98H336Q378 -98 397.5 -79.0Q417 -60 417 -20V50L419 150H401L418 165Q418 105 378.0 70.0Q338 35 271 35Q186 35 137.0 90.5Q88 146 88 240V356Q88 450 137.0 505.0Q186 560 271 560Q338 560 378.0 525.0Q418 490 418 430L401 445H418V550H507V-20Q507 -94 461.5 -137.0Q416 -180 335 -180ZM298 113Q354 113 386.0 148.0Q418 183 418 245V350Q418 412 386.0 447.0Q354 482 298 482Q241 482 209.5 448.0Q178 414 178 350V245Q178 181 209.5 147.0Q241 113 298 113Z" transform="translate(600.400 316.000) scale(0.020000 -0.020000)"/>
<path d="M92 0V730H182V550V445H201L182 424Q182 489 221.0 524.5Q260 560 329 560Q412 560 461.0 509.0Q510 458 510 370V0H420V360Q420 419 388.5 451.5Q357 484 303 484Q247 484 214.5 449.0Q182 414 182 350V0Z" transform="translate(614.800 316.000) scale(0.020000 -0.020000)"/>
<path d="M360 0Q289 0 249.5 38.0Q210 76 210 145V468H55V550H210V705H300V550H520V468H300V145Q300 82 360 82H510V0Z" transform="translate(629.200 316.000) scale(0.020000 -0.020000)"/>
<path d="M123 0 35 550H115L170 160Q173 138 176.5 112.5Q180 87 182 70Q184 87 188.5 112.5Q193 138 196 160L257 550H343L404 160Q407 138 411.5 112.5Q416 87 418 70Q420 87 424.5 112.5Q429 138 432 160L489 550H565L473 0H374L315 380Q311 408 306.0 436.0Q301 464 299 480Q297 464 293.0 436.0Q289 408 284 380L222 0Z" transform="translate(643.600 316.000) scale(0.020000 -0.020000)"/>
<path d="M300 -10Q235 -10 186.5 16.0Q138 42 111.5 89.5Q85 137 85 200V350Q85 414 111.5 461.0Q138 508 186.5 534.0Q235 560 300 560Q365 560 413.5 534.0Q462 508 488.5 461.0Q515 414 515 350V253H173V200Q173 135 206.0 100.5Q239 66 300 66Q352 66 384.0 84.5Q416 103 423 140H513Q504 71 445.5 30.5Q387 -10 300 -10ZM427 313V350Q427 415 394.5 450.0Q362 485 300 485Q239 485 206.0 450.0Q173 415 173 350V321H434Z" transform="translate(658.000 316.000) scale(0.020000 -0.020000)"/>
<path d="M85 0V82H280V468H110V550H370V82H555V0ZM315 649Q282 649 263.0 666.0Q244 683 244 712Q244 742 263.0 759.5Q282 777 315 777Q348 777 367.0 759.5Q386 742 386 712Q386 683 367.0 666.0Q348 649 315 649Z" transform="translate(672.400 316.000) scale(0.020000 -0.020000)"/>
<path d="M161 -180V-98H336Q378 -98 397.5 -79.0Q417 -60 417 -20V50L419 150H401L418 165Q418 105 378.0 70.0Q338 35 271 35Q186 35 137.0 90.5Q88 146 88 240V356Q88 450 137.0 505.0Q186 560 271 560Q338 560 378.0 525.0Q418 490 418 430L401 445H418V550H507V-20Q507 -94 461.5 -137.0Q416 -180 335 -180ZM298 113Q354 113 386.0 148.0Q418 183 418 245V350Q418 412 386.0 447.0Q354 482 298 482Q241 482 209.5 448.0Q178 414 178 350V245Q178 181 209.5 147.0Q241 113 298 113Z" transform="translate(686.800 316.000) scale(0.020000 -0.020000)"/>
<path d="M92 0V730H182V550V445H201L182 424Q182 489 221.0 524.5Q260 560 329 560Q412 560 461.0 509.0Q510 458 510 370V0H420V360Q420 419 388.5 451.5Q357 484 303 484Q247 484 214.5 449.0Q182 414 182 350V0Z" transform="translate(701.200 316.000) scale(0.020000 -0.020000)"/>
<path d="M360 0Q289 0 249.5 38.0Q210 76 210 145V468H55V550H210V705H300V550H520V468H300V145Q300 82 360 82H510V0Z" transform="translate(715.600 316.000) scale(0.020000 -0.020000)"/>
<path d="M300 260Q262 260 239.5 282.0Q217 304 217 341Q217 380 239.5 403.0Q262 426 300 426Q338 426 360.5 403.0Q383 380 383 341Q383 304 360.5 282.0Q338 260 300 260Z" transform="translate(758.800 316.000) scale(0.020000 -0.020000)"/>
<path d="M360 0Q289 0 249.5 38.0Q210 76 210 145V468H55V550H210V705H300V550H520V468H300V145Q300 82 360 82H510V0Z" transform="translate(802.000 316.000) scale(0.020000 -0.020000)"/>
<path d="M300 -8Q234 -8 186.0 17.0Q138 42 111.5 89.5Q85 137 85 202V348Q85 414 111.5 461.0Q138 508 186.0 533.0Q234 558 300 558Q366 558 414.0 533.0Q462 508 488.5 461.0Q515 414 515 349V202Q515 137 488.5 89.5Q462 42 414.0 17.0Q366 -8 300 -8ZM300 72Q359 72 392.0 105.0Q425 138 425 202V348Q425 412 392.0 445.0Q359 478 300 478Q242 478 208.5 445.0Q175 412 175 348V202Q175 138 208.5 105.0Q242 72 300 72Z" transform="translate(816.400 316.000) scale(0.020000 -0.020000)"/>
<path d="M95 0V730H185V323H291L451 550H554L369 288L557 0H452L292 245H185V0Z" transform="translate(830.800 316.000) scale(0.020000 -0.020000)"/>
<path d="M300 -10Q235 -10 186.5 16.0Q138 42 111.5 89.5Q85 137 85 200V350Q85 414 111.5 461.0Q138 508 186.5 534.0Q235 560 300 560Q365 560 413.5 534.0Q462 508 488.5 461.0Q515 414 515 350V253H173V200Q173 135 206.0 100.5Q239 66 300 66Q352 66 384.0 84.5Q416 103 423 140H513Q504 71 445.5 30.5Q387 -10 300 -10ZM427 313V350Q427 415 394.5 450.0Q362 485 300 485Q239 485 206.0 450.0Q173 415 173 350V321H434Z" transform="translate(845.200 316.000) scale(0.020000 -0.020000)"/>
<path d="M92 0V550H182V445H201L182 424Q182 489 221.0 524.5Q260 560 329 560Q412 560 461.0 509.0Q510 458 510 370V0H420V360Q420 419 388.5 450.5Q357 482 303 482Q247 482 214.5 448.0Q182 414 182 350V0Z" transform="translate(859.600 316.000) scale(0.020000 -0.020000)"/>
<path d="M140 290V370H460V290Z" transform="translate(874.000 316.000) scale(0.020000 -0.020000)"/>
<path d="M375 0Q327 0 291.0 19.0Q255 38 235.0 73.0Q215 108 215 155V648H30V730H305V155Q305 121 324.0 101.5Q343 82 375 82H550V0Z" transform="translate(888.400 316.000) scale(0.020000 -0.020000)"/>
<path d="M300 -10Q235 -10 186.5 16.0Q138 42 111.5 89.5Q85 137 85 200V350Q85 414 111.5 461.0Q138 508 186.5 534.0Q235 560 300 560Q365 560 413.5 534.0Q462 508 488.5 461.0Q515 414 515 350V253H173V200Q173 135 206.0 100.5Q239 66 300 66Q352 66 384.0 84.5Q416 103 423 140H513Q504 71 445.5 30.5Q387 -10 300 -10ZM427 313V350Q427 415 394.5 450.0Q362 485 300 485Q239 485 206.0 450.0Q173 415 173 350V321H434Z" transform="translate(902.800 316.000) scale(0.020000 -0.020000)"/>
<path d="M252 -10Q165 -10 115.0 34.5Q65 79 65 155Q65 232 115.0 276.0Q165 320 250 320H420V375Q420 426 389.5 453.5Q359 481 303 481Q254 481 221.0 460.5Q188 440 183 405H93Q102 476 160.0 518.0Q218 560 305 560Q400 560 455.0 511.0Q510 462 510 378V0H422V105H407L422 120Q422 60 375.5 25.0Q329 -10 252 -10ZM274 61Q338 61 379.0 93.0Q420 125 420 175V253H252Q207 253 181.0 228.0Q155 203 155 160Q155 114 186.5 87.5Q218 61 274 61Z" transform="translate(917.200 316.000) scale(0.020000 -0.020000)"/>
<path d="M92 0V550H182V445H201L182 424Q182 489 221.0 524.5Q260 560 329 560Q412 560 461.0 509.0Q510 458 510 370V0H420V360Q420 419 388.5 450.5Q357 482 303 482Q247 482 214.5 448.0Q182 414 182 350V0Z" transform="translate(931.600 316.000) scale(0.020000 -0.020000)"/>
<path d="M300 260Q262 260 239.5 282.0Q217 304 217 341Q217 380 239.5 403.0Q262 426 300 426Q338 426 360.5 403.0Q383 380 383 341Q383 304 360.5 282.0Q338 260 300 260Z" transform="translate(974.800 316.000) scale(0.020000 -0.020000)"/>
<path d="M66 0V550H145V484H163L149 460Q149 506 173.5 533.0Q198 560 240 560Q286 560 311.0 526.0Q336 492 336 430L309 484H351L332 460Q332 506 357.5 533.0Q383 560 425 560Q477 560 505.5 521.0Q534 482 534 418V0H451V419Q451 453 436.5 472.0Q422 491 394 491Q367 491 351.5 472.5Q336 454 336 420V0H264V419Q264 454 248.5 472.5Q233 491 205 491Q177 491 163.0 472.5Q149 454 149 420V0Z" transform="translate(1018.000 316.000) scale(0.020000 -0.020000)"/>
<path d="M300 -10Q235 -10 186.5 16.0Q138 42 111.5 89.5Q85 137 85 200V350Q85 414 111.5 461.0Q138 508 186.5 534.0Q235 560 300 560Q365 560 413.5 534.0Q462 508 488.5 461.0Q515 414 515 350V253H173V200Q173 135 206.0 100.5Q239 66 300 66Q352 66 384.0 84.5Q416 103 423 140H513Q504 71 445.5 30.5Q387 -10 300 -10ZM427 313V350Q427 415 394.5 450.0Q362 485 300 485Q239 485 206.0 450.0Q173 415 173 350V321H434Z" transform="translate(1032.400 316.000) scale(0.020000 -0.020000)"/>
<path d="M66 0V550H145V484H163L149 460Q149 506 173.5 533.0Q198 560 240 560Q286 560 311.0 526.0Q336 492 336 430L309 484H351L332 460Q332 506 357.5 533.0Q383 560 425 560Q477 560 505.5 521.0Q534 482 534 418V0H451V419Q451 453 436.5 472.0Q422 491 394 491Q367 491 351.5 472.5Q336 454 336 420V0H264V419Q264 454 248.5 472.5Q233 491 205 491Q177 491 163.0 472.5Q149 454 149 420V0Z" transform="translate(1046.800 316.000) scale(0.020000 -0.020000)"/>
<path d="M300 -8Q234 -8 186.0 17.0Q138 42 111.5 89.5Q85 137 85 202V348Q85 414 111.5 461.0Q138 508 186.0 533.0Q234 558 300 558Q366 558 414.0 533.0Q462 508 488.5 461.0Q515 414 515 349V202Q515 137 488.5 89.5Q462 42 414.0 17.0Q366 -8 300 -8ZM300 72Q359 72 392.0 105.0Q425 138 425 202V348Q425 412 392.0 445.0Q359 478 300 478Q242 478 208.5 445.0Q175 412 175 348V202Q175 138 208.5 105.0Q242 72 300 72Z" transform="translate(1061.200 316.000) scale(0.020000 -0.020000)"/>
<path d="M111 0V550H199V445H220L191 380Q191 469 229.5 514.5Q268 560 344 560Q431 560 482.5 505.5Q534 451 534 358V325H444V350Q444 415 412.5 449.5Q381 484 323 484Q266 484 233.5 449.0Q201 414 201 350V0Z" transform="translate(1075.600 316.000) scale(0.020000 -0.020000)"/>
<path d="M178 -180 259 34 55 550H155L283 210Q290 193 296.0 169.5Q302 146 306 130Q310 146 316.0 169.5Q322 193 328 210L448 550H545L274 -180Z" transform="translate(1090.000 316.000) scale(0.020000 -0.020000)"/>
</g></svg>